<?xml version="1.0" standalone="no"?>
<!DOCTYPE svg PUBLIC "-//W3C//DTD SVG 20010904//EN"
 "http://www.w3.org/TR/2001/REC-SVG-20010904/DTD/svg10.dtd">
<svg version="1.0" xmlns="http://www.w3.org/2000/svg"
 width="355.000000pt" height="355.000000pt" viewBox="0 0 355.000000 355.000000"
 preserveAspectRatio="xMidYMid meet">
<metadata>
Created by potrace 1.11, written by Peter Selinger 2001-2013
</metadata>
<g transform="translate(0.000000,355.000000) scale(0.100000,-0.100000)"
fill="#000000" stroke="none">
<path d="M230 2223 l0 -1328 93 -53 c50 -29 99 -57 107 -62 27 -17 123 -72
180 -103 30 -16 60 -34 67 -39 7 -5 27 -17 45 -27 18 -10 92 -52 165 -94 72
-42 147 -85 165 -95 18 -11 74 -43 123 -72 50 -29 110 -64 135 -78 25 -14 137
-78 249 -143 l204 -118 41 23 c22 13 111 64 196 113 172 100 458 266 506 293
234 134 330 190 389 225 39 23 95 56 125 73 31 17 105 59 165 94 l110 64 1
1327 1 1327 -1533 0 -1534 0 0 -1327z"/>
</g>
</svg>
